<?xml version="1.0" encoding="utf-8"?>
<!-- Generator: Adobe Illustrator 19.2.1, SVG Export Plug-In . SVG Version: 6.00 Build 0)  -->
<svg version="1.1" id="Layer_1" xmlns="http://www.w3.org/2000/svg" xmlns:xlink="http://www.w3.org/1999/xlink" x="0px" y="0px"
	 viewBox="0 0 58 50" style="enable-background:new 0 0 58 50;" xml:space="preserve">
<style type="text/css">
	.st0{fill:#BFF383;}
</style>
<g>
	<g>
		<path class="st0" d="M43.599,35.122c-3.84,0-6.963,3.112-6.963,6.939S39.759,49,43.599,49c3.839,0,6.964-3.112,6.964-6.939
			S47.438,35.122,43.599,35.122z M43.599,44.912c-1.576,0-2.857-1.279-2.857-2.851c0-1.572,1.281-2.851,2.857-2.851
			s2.858,1.279,2.858,2.851C46.457,43.634,45.175,44.912,43.599,44.912z M25.474,35.122c-3.839,0-6.963,3.112-6.963,6.939
			S21.635,49,25.474,49c3.84,0,6.964-3.112,6.964-6.939S29.315,35.122,25.474,35.122z M25.474,44.912
			c-1.576,0-2.858-1.279-2.858-2.851c0-1.572,1.282-2.851,2.858-2.851s2.858,1.279,2.858,2.851
			C28.333,43.634,27.05,44.912,25.474,44.912z M57.609,9.708c-0.385-0.526-1.015-0.862-1.692-0.863L17.338,9.372l-0.914-4.205
			C15.902,2.819,13.853,1,11.439,1H2.053C0.921,1,0,1.664,0,2.791c0,1.126,0.921,1.791,2.053,1.791h9.386
			c0.465,0,0.875,0.619,0.976,1.072l5.767,26.27c0.206,0.929,1.049,1.316,2.004,1.316h28.709c0.881,0,1.664-0.278,1.946-1.11
			l7.051-20.555C58.105,10.95,57.999,10.245,57.609,9.708z M47.421,29.658H21.835l-3.593-16.173l34.834-0.499L47.421,29.658z"/>
	</g>
</g>
</svg>
